<svg width="1200" height="630" viewBox="0 0 1200 630" xmlns="http://www.w3.org/2000/svg">
  <rect width="1200" height="630" fill="#0d1117"/>
  <rect width="1200" height="38" fill="#2f81f7"/>
  <circle cx="96" cy="108" r="7" fill="#2f81f7" opacity="0.6"/>
  <circle cx="168" cy="108" r="7" fill="#2f81f7" opacity="0.45"/>
  <circle cx="240" cy="108" r="7" fill="#2f81f7" opacity="0.3"/>
  <text x="84" y="170" font-family="monospace" font-size="22" font-weight="bold" fill="#2f81f7" letter-spacing="2">MCP DEEP DIVE — PART 2</text>
  <text x="84" y="250" font-family="sans-serif" font-size="42" font-weight="bold" fill="#f0f6fc">Accelerate Agentic</text>
  <text x="84" y="304" font-family="sans-serif" font-size="42" font-weight="bold" fill="#f0f6fc">Tool Calling with</text>
  <text x="84" y="358" font-family="sans-serif" font-size="42" font-weight="bold" fill="#f0f6fc">Serverless Model</text>
  <text x="84" y="412" font-family="sans-serif" font-size="42" font-weight="bold" fill="#f0f6fc">Customization</text>
  <text x="84" y="470" font-family="sans-serif" font-size="26" fill="#8b949e">on Amazon SageMaker AI</text>
  <!-- simple architecture glyph: agent -> model -> mcp server -->
  <g font-family="monospace" font-size="16" fill="#8b949e">
    <rect x="780" y="220" width="150" height="56" rx="6" fill="none" stroke="#2f81f7"/>
    <text x="855" y="253" text-anchor="middle" fill="#f0f6fc">Agent</text>
    <line x1="930" y1="248" x2="990" y2="248" stroke="#2f81f7"/>
    <rect x="990" y="220" width="150" height="56" rx="6" fill="none" stroke="#2f81f7"/>
    <text x="1065" y="245" text-anchor="middle" fill="#f0f6fc" font-size="13">SageMaker</text>
    <text x="1065" y="262" text-anchor="middle" fill="#f0f6fc" font-size="13">serverless</text>
    <line x1="855" y1="276" x2="855" y2="330" stroke="#2f81f7"/>
    <rect x="780" y="330" width="150" height="56" rx="6" fill="none" stroke="#2f81f7"/>
    <text x="855" y="358" text-anchor="middle" fill="#f0f6fc" font-size="13">MCP server</text>
    <text x="855" y="374" text-anchor="middle" fill="#f0f6fc" font-size="13">(tools)</text>
  </g>
  <text x="84" y="590" font-family="monospace" font-size="15" fill="#8b949e">EngineeringCoders — AEP</text>
</svg>
